<mxfile host="app.diagrams.net" agent="Mozilla/5.0 (Macintosh; Intel Mac OS X 10_15_7) AppleWebKit/537.36 (KHTML, like Gecko) Chrome/137.0.0.0 Safari/537.36" version="27.1.3">
  <diagram name="Page-1" id="h3wLkU-g-WoUMEd0WsbA">
    <mxGraphModel dx="909" dy="515" grid="1" gridSize="10" guides="1" tooltips="1" connect="1" arrows="1" fold="1" page="1" pageScale="1" pageWidth="827" pageHeight="1169" math="0" shadow="0">
      <root>
        <mxCell id="0" />
        <mxCell id="1" parent="0" />
        <mxCell id="tmWY7lP6dRzJlSaXlkDp-5" style="edgeStyle=orthogonalEdgeStyle;rounded=0;orthogonalLoop=1;jettySize=auto;html=1;exitX=0.5;exitY=1;exitDx=0;exitDy=0;entryX=0.5;entryY=0;entryDx=0;entryDy=0;" edge="1" parent="1" source="tmWY7lP6dRzJlSaXlkDp-2" target="tmWY7lP6dRzJlSaXlkDp-3">
          <mxGeometry relative="1" as="geometry" />
        </mxCell>
        <mxCell id="tmWY7lP6dRzJlSaXlkDp-2" value="Load balancer" style="rounded=0;whiteSpace=wrap;html=1;" vertex="1" parent="1">
          <mxGeometry x="350" y="60" width="120" height="60" as="geometry" />
        </mxCell>
        <mxCell id="tmWY7lP6dRzJlSaXlkDp-14" style="edgeStyle=orthogonalEdgeStyle;rounded=0;orthogonalLoop=1;jettySize=auto;html=1;exitX=0.25;exitY=1;exitDx=0;exitDy=0;entryX=1;entryY=0.5;entryDx=0;entryDy=0;" edge="1" parent="1" source="tmWY7lP6dRzJlSaXlkDp-3" target="tmWY7lP6dRzJlSaXlkDp-7">
          <mxGeometry relative="1" as="geometry" />
        </mxCell>
        <mxCell id="tmWY7lP6dRzJlSaXlkDp-15" style="edgeStyle=orthogonalEdgeStyle;rounded=0;orthogonalLoop=1;jettySize=auto;html=1;exitX=0.75;exitY=1;exitDx=0;exitDy=0;entryX=0;entryY=0.5;entryDx=0;entryDy=0;" edge="1" parent="1" source="tmWY7lP6dRzJlSaXlkDp-3" target="tmWY7lP6dRzJlSaXlkDp-8">
          <mxGeometry relative="1" as="geometry" />
        </mxCell>
        <mxCell id="tmWY7lP6dRzJlSaXlkDp-16" style="edgeStyle=orthogonalEdgeStyle;rounded=0;orthogonalLoop=1;jettySize=auto;html=1;entryX=0.75;entryY=0;entryDx=0;entryDy=0;" edge="1" parent="1" source="tmWY7lP6dRzJlSaXlkDp-3" target="tmWY7lP6dRzJlSaXlkDp-9">
          <mxGeometry relative="1" as="geometry" />
        </mxCell>
        <mxCell id="tmWY7lP6dRzJlSaXlkDp-3" value="API Gateway" style="rounded=0;whiteSpace=wrap;html=1;" vertex="1" parent="1">
          <mxGeometry x="350" y="150" width="120" height="60" as="geometry" />
        </mxCell>
        <mxCell id="tmWY7lP6dRzJlSaXlkDp-17" style="edgeStyle=orthogonalEdgeStyle;rounded=0;orthogonalLoop=1;jettySize=auto;html=1;entryX=0;entryY=0.75;entryDx=0;entryDy=0;" edge="1" parent="1" source="tmWY7lP6dRzJlSaXlkDp-6" target="tmWY7lP6dRzJlSaXlkDp-10">
          <mxGeometry relative="1" as="geometry">
            <Array as="points">
              <mxPoint x="130" y="385" />
            </Array>
          </mxGeometry>
        </mxCell>
        <mxCell id="tmWY7lP6dRzJlSaXlkDp-6" value="User Service" style="rounded=0;whiteSpace=wrap;html=1;" vertex="1" parent="1">
          <mxGeometry x="70" y="240" width="120" height="60" as="geometry" />
        </mxCell>
        <mxCell id="tmWY7lP6dRzJlSaXlkDp-18" style="edgeStyle=orthogonalEdgeStyle;rounded=0;orthogonalLoop=1;jettySize=auto;html=1;entryX=0;entryY=0.5;entryDx=0;entryDy=0;" edge="1" parent="1" source="tmWY7lP6dRzJlSaXlkDp-7" target="tmWY7lP6dRzJlSaXlkDp-10">
          <mxGeometry relative="1" as="geometry" />
        </mxCell>
        <mxCell id="tmWY7lP6dRzJlSaXlkDp-7" value="Wallet Service" style="rounded=0;whiteSpace=wrap;html=1;" vertex="1" parent="1">
          <mxGeometry x="240" y="240" width="120" height="60" as="geometry" />
        </mxCell>
        <mxCell id="tmWY7lP6dRzJlSaXlkDp-20" style="edgeStyle=orthogonalEdgeStyle;rounded=0;orthogonalLoop=1;jettySize=auto;html=1;entryX=1;entryY=0.75;entryDx=0;entryDy=0;" edge="1" parent="1" source="tmWY7lP6dRzJlSaXlkDp-8" target="tmWY7lP6dRzJlSaXlkDp-10">
          <mxGeometry relative="1" as="geometry" />
        </mxCell>
        <mxCell id="tmWY7lP6dRzJlSaXlkDp-8" value="Notification Service" style="rounded=0;whiteSpace=wrap;html=1;" vertex="1" parent="1">
          <mxGeometry x="450" y="240" width="120" height="60" as="geometry" />
        </mxCell>
        <mxCell id="tmWY7lP6dRzJlSaXlkDp-25" style="edgeStyle=orthogonalEdgeStyle;rounded=0;orthogonalLoop=1;jettySize=auto;html=1;" edge="1" parent="1" source="tmWY7lP6dRzJlSaXlkDp-9" target="tmWY7lP6dRzJlSaXlkDp-22">
          <mxGeometry relative="1" as="geometry" />
        </mxCell>
        <mxCell id="tmWY7lP6dRzJlSaXlkDp-9" value="Project Service" style="rounded=0;whiteSpace=wrap;html=1;" vertex="1" parent="1">
          <mxGeometry x="600" y="240" width="120" height="60" as="geometry" />
        </mxCell>
        <mxCell id="tmWY7lP6dRzJlSaXlkDp-12" style="edgeStyle=orthogonalEdgeStyle;rounded=0;orthogonalLoop=1;jettySize=auto;html=1;exitX=0.5;exitY=1;exitDx=0;exitDy=0;entryX=0.5;entryY=0;entryDx=0;entryDy=0;" edge="1" parent="1" source="tmWY7lP6dRzJlSaXlkDp-10" target="tmWY7lP6dRzJlSaXlkDp-11">
          <mxGeometry relative="1" as="geometry" />
        </mxCell>
        <mxCell id="tmWY7lP6dRzJlSaXlkDp-27" style="edgeStyle=orthogonalEdgeStyle;rounded=0;orthogonalLoop=1;jettySize=auto;html=1;exitX=0.25;exitY=1;exitDx=0;exitDy=0;" edge="1" parent="1" source="tmWY7lP6dRzJlSaXlkDp-10" target="tmWY7lP6dRzJlSaXlkDp-26">
          <mxGeometry relative="1" as="geometry" />
        </mxCell>
        <mxCell id="tmWY7lP6dRzJlSaXlkDp-10" value="Message Broker" style="rounded=1;whiteSpace=wrap;html=1;" vertex="1" parent="1">
          <mxGeometry x="350" y="340" width="120" height="60" as="geometry" />
        </mxCell>
        <mxCell id="tmWY7lP6dRzJlSaXlkDp-11" value="Payment Service" style="rounded=0;whiteSpace=wrap;html=1;" vertex="1" parent="1">
          <mxGeometry x="350" y="440" width="120" height="60" as="geometry" />
        </mxCell>
        <mxCell id="tmWY7lP6dRzJlSaXlkDp-13" style="edgeStyle=orthogonalEdgeStyle;rounded=0;orthogonalLoop=1;jettySize=auto;html=1;entryX=0.417;entryY=0;entryDx=0;entryDy=0;entryPerimeter=0;" edge="1" parent="1" source="tmWY7lP6dRzJlSaXlkDp-3" target="tmWY7lP6dRzJlSaXlkDp-6">
          <mxGeometry relative="1" as="geometry" />
        </mxCell>
        <mxCell id="tmWY7lP6dRzJlSaXlkDp-21" value="MongoDB" style="shape=cylinder3;whiteSpace=wrap;html=1;boundedLbl=1;backgroundOutline=1;size=15;" vertex="1" parent="1">
          <mxGeometry x="40" y="330" width="60" height="80" as="geometry" />
        </mxCell>
        <mxCell id="tmWY7lP6dRzJlSaXlkDp-22" value="MongoDB" style="shape=cylinder3;whiteSpace=wrap;html=1;boundedLbl=1;backgroundOutline=1;size=15;" vertex="1" parent="1">
          <mxGeometry x="730" y="300" width="60" height="80" as="geometry" />
        </mxCell>
        <mxCell id="tmWY7lP6dRzJlSaXlkDp-24" style="edgeStyle=orthogonalEdgeStyle;rounded=0;orthogonalLoop=1;jettySize=auto;html=1;entryX=0;entryY=0;entryDx=0;entryDy=27.5;entryPerimeter=0;" edge="1" parent="1" source="tmWY7lP6dRzJlSaXlkDp-6" target="tmWY7lP6dRzJlSaXlkDp-21">
          <mxGeometry relative="1" as="geometry" />
        </mxCell>
        <mxCell id="tmWY7lP6dRzJlSaXlkDp-26" value="Transaction Service" style="rounded=0;whiteSpace=wrap;html=1;" vertex="1" parent="1">
          <mxGeometry x="180" y="440" width="120" height="60" as="geometry" />
        </mxCell>
        <mxCell id="tmWY7lP6dRzJlSaXlkDp-28" value="MongoDB" style="shape=cylinder3;whiteSpace=wrap;html=1;boundedLbl=1;backgroundOutline=1;size=15;" vertex="1" parent="1">
          <mxGeometry x="80" y="450" width="60" height="80" as="geometry" />
        </mxCell>
        <mxCell id="tmWY7lP6dRzJlSaXlkDp-29" style="edgeStyle=orthogonalEdgeStyle;rounded=0;orthogonalLoop=1;jettySize=auto;html=1;entryX=1;entryY=0;entryDx=0;entryDy=15;entryPerimeter=0;" edge="1" parent="1" source="tmWY7lP6dRzJlSaXlkDp-26" target="tmWY7lP6dRzJlSaXlkDp-28">
          <mxGeometry relative="1" as="geometry" />
        </mxCell>
      </root>
    </mxGraphModel>
  </diagram>
</mxfile>
